<?xml version="1.0" encoding="UTF-8"?>
<svg width="47px" height="46px" viewBox="0 0 47 46" version="1.1" xmlns="http://www.w3.org/2000/svg" xmlns:xlink="http://www.w3.org/1999/xlink">
    <!-- Generator: Sketch 58 (84663) - https://sketch.com -->
    <title>Symbol Full Color Black Blue - Pantone</title>
    <desc>Created with Sketch.</desc>
    <g id="Page-1" stroke="none" stroke-width="1" fill="none" fill-rule="evenodd">
        <g id="Symbol-Full-Color-Black-Blue---Pantone" transform="translate(-1.000000, -1.000000)" fill-rule="nonzero">
            <g id="Layer_1" transform="translate(1.000000, 1.000000)">
                <g id="Group">
                    <path d="M30.4716667,45.9806723 L0.509166667,45.9806723 L0.509166667,36.3747899 L14.57,26.4210084 C16.92,24.7781513 16.92,23.7731092 16.92,23.4445378 C16.92,22.3235294 15.68625,22.207563 15.1575,22.207563 C13.7083333,22.207563 12.22,23.1932773 9.71333333,25.8605042 L8.94958333,26.6722689 L0,19.1537815 L0.724583333,18.2647059 C4.44541667,13.7420168 8.47958333,10.7268908 16.0975,10.7268908 C24.2245833,10.7268908 30.13875,15.6554622 30.13875,22.4588235 L30.13875,22.5554622 C30.13875,28.3151261 26.7116667,31.2915966 23.0104167,33.6495798 L20.5625,35.1957983 L30.4716667,35.1957983 L30.4716667,45.9806723 Z" id="Path" fill="#263746"></path>
                    <ellipse id="Oval" fill="#46A8C6" cx="39.7933333" cy="7.1512605" rx="7.20666667" ry="7.11260504"></ellipse>
                </g>
            </g>
        </g>
    </g>
</svg>